<?xml version="1.0" encoding="utf-8"?>
<!-- Generator: Adobe Illustrator 19.1.0, SVG Export Plug-In . SVG Version: 6.00 Build 0)  -->
<svg version="1.1" id="Layer_1" xmlns="http://www.w3.org/2000/svg" xmlns:xlink="http://www.w3.org/1999/xlink" x="0px" y="0px"
	 viewBox="0 0 493 80" style="enable-background:new 0 0 493 80;" xml:space="preserve">
<style type="text/css">
	.st0{fill:#025E43;}
	.st1{fill:#FFFFFF;}
</style>
<g>
	<rect class="st0" width="243" height="80"/>
	<g>
		<path class="st1" d="M83.7,54.4c-1.9,2.1-5.1,3.9-9.8,3.9c-4.7,0-7.8-1.8-9.7-3.9c-2.8-3-3.6-6.2-3.6-11.9c0-5.7,0.7-9.1,3.6-12
			c1.9-2.1,5.1-3.9,9.7-3.9c4.7,0,7.9,1.8,9.8,3.9c2.8,3,3.6,6.3,3.6,12C87.2,48.2,86.5,51.4,83.7,54.4z M77.6,35.1
			c-0.9-0.9-2.1-1.4-3.7-1.4c-1.6,0-2.7,0.5-3.6,1.4c-1.6,1.6-1.8,4.2-1.8,7.4s0.2,5.7,1.8,7.3c0.9,0.9,2.1,1.4,3.6,1.4
			c1.6,0,2.8-0.5,3.7-1.4c1.6-1.6,1.8-4.1,1.8-7.3S79.2,36.7,77.6,35.1z"/>
		<path class="st1" d="M129.8,57.9v-19c0-4.3-2.7-4.5-5.2-4.5c-2.4,0-5.3,0.2-5.3,4.3v19.2h-7.9v-19c0-4.3-2.7-4.5-5.2-4.5
			s-5.3,0.2-5.3,4.5v19h-7.9V27.6h7.7v2.9c2.1-2.1,5-3.3,7.9-3.3c3.5,0,6.3,1.3,8.3,4c2.7-2.8,5.5-4,9.4-4c3.1,0,6,1,7.7,2.8
			c2.5,2.5,3.4,5.5,3.4,8.9v18.9H129.8z"/>
		<path class="st1" d="M161.7,57.9v-2.7c-2.1,2.1-4.1,3-7.7,3c-3.6,0-6.2-0.9-8-2.8c-1.7-1.8-2.6-4.3-2.6-7.1c0-5,3.4-9.1,10.8-9.1
			h7.4v-1.6c0-3.4-1.7-4.4-5.9-4.4c-3,0-4.4,0.7-6,2.6l-5-4.9c3.1-3.4,6.1-4.4,11.4-4.4c8.8,0,13.4,3.7,13.4,11.1v20.2H161.7z
			 M161.5,44.6h-6.2c-2.8,0-4.4,1.3-4.4,3.6c0,2.2,1.5,3.6,4.5,3.6c2.2,0,3.6-0.2,5-1.5c0.8-0.8,1.1-2.1,1.1-4V44.6z"/>
		<path class="st1" d="M181,23c-2.7,0-5-2.2-5-5s2.2-4.9,5-4.9s4.9,2.2,4.9,4.9S183.8,23,181,23z M177.1,57.9V27.6h7.9v30.3H177.1z"
			/>
		<path class="st1" d="M210.8,57.9v-19c0-4.3-2.7-5.7-5.2-5.7s-5.3,1.5-5.3,5.7v19h-7.9V27.6h7.7v2.9c2.1-2.2,5-3.3,7.9-3.3
			c3.1,0,5.7,1,7.4,2.8c2.5,2.5,3.2,4.3,3.2,7.7v20.1H210.8z"/>
		<path class="st1" d="M55.3,36.2c0,6.5,0.5,12.7-4.3,17.6c-2.8,2.8-6.9,4.1-11.4,4.1H24.1V33.6h8.4v16.8h6.3c2.9,0,4.8-0.9,6.3-2.7
			c1.6-1.9,1.8-5,1.8-11.5s-0.2-9.4-1.8-11.4c-0.1-0.1-0.4-0.4-0.4-0.5v-9c2.3,0.6,4.6,2,6.3,3.6C55.8,23.8,55.3,29.7,55.3,36.2z"/>
		<polygon class="st1" points="32.4,22.2 38.1,22.2 38.1,14.7 24.1,14.7 24.1,27.6 32.4,27.6 		"/>
	</g>
	<rect x="249" class="st1" width="244" height="80"/>
	<g>
		<g>
			<g>
				<path class="st0" d="M298.5,33.6v7.9h-17v16.5h-8.4V33.6H298.5z"/>
			</g>
			<polygon class="st0" points="295,14.7 293.2,14.7 281.5,14.7 273.1,14.7 273.1,23.1 273.1,27.6 281.5,27.6 281.5,22.2 
				293.2,22.2 295,22.2 298.5,22.2 298.5,14.7 			"/>
		</g>
		<path class="st0" d="M320.7,58v-2.7c-2.1,2.1-4.1,3-7.7,3c-3.6,0-6.2-0.9-8.1-2.8c-1.7-1.8-2.6-4.3-2.6-7.1c0-5,3.5-9.1,10.8-9.1
			h7.4v-1c0-3.5-1.7-5-5.9-5c-3,0-4.4,0.7-6.1,2.6l-5-4.9c3.1-3.4,6.1-4.4,11.4-4.4c8.8,0,13.4,3.8,13.4,11.1V58H320.7z M320.5,44.7
			h-6.2c-2.8,0-4.4,1.3-4.4,3.6c0,2.2,1.5,3.6,4.5,3.6c2.2,0,3.6-0.2,5-1.5c0.8-0.8,1.2-2.1,1.2-4V44.7z"/>
		<path class="st0" d="M348,58c-6.3,0-14.1-2.9-14.1-15.6s7.8-15.7,14.1-15.7c4.4,0,7.6,1.3,10.4,4.2l-5.3,5.3
			c-1.6-1.8-3-2.5-5.1-2.5c-1.9,0-3.3,0.7-4.5,2.1c-1.2,1.5-1.8,3.2-1.8,6.6s0.5,5,1.8,6.5c1.2,1.4,2.6,2.1,4.5,2.1
			c2.1,0,3.5-0.7,5.1-2.5l5.3,5.3C355.6,56.6,352.3,58,348,58z"/>
		<path class="st0" d="M374.4,57.6c-6.4,0-9.1-4.5-9.1-9V33.6h-3.3v-6h3.3v-10h7.9v10h5.6v6h-5.6v14.4c0,1.8,0.8,2.8,2.7,2.8h2.8
			v6.7H374.4z"/>
		<path class="st0" d="M406.3,54.1c-1.9,2.1-5.1,3.9-9.8,3.9c-4.7,0-7.8-1.8-9.8-3.9c-2.8-3-3.6-5.9-3.6-11.6c0-5.7,0.7-9,3.6-12
			c1.9-2.1,5.1-3.9,9.8-3.9c4.7,0,7.9,1.8,9.8,3.9c2.8,3,3.6,6.3,3.6,12C409.9,48.2,409.1,51.1,406.3,54.1z M400.2,35.1
			c-0.9-0.9-2.1-1.4-3.7-1.4c-1.6,0-2.7,0.5-3.6,1.4c-1.6,1.6-1.8,4.1-1.8,7.4s0.2,5.4,1.8,7c0.9,0.9,2.1,1.4,3.6,1.4
			c1.6,0,2.8-0.5,3.7-1.4c1.6-1.6,1.8-3.7,1.8-7S401.8,36.7,400.2,35.1z"/>
		<path class="st0" d="M432.8,36.2c-1.2-1.2-2.2-1.9-4.2-1.9c-2.4,0-5.1,1.8-5.1,5.8v17.4h-7.9v-30h7.7v3c1.5-1.8,4.5-3.4,7.9-3.4
			c3.1,0,5.3,0.8,7.5,3L432.8,36.2z"/>
		<path class="st0" d="M455.4,63.5c-0.7,1.8-1.4,3.1-2.4,4.1c-1.8,1.8-4.2,2.4-6.8,2.4h-3.1v-7.1h1.8c2.2,0,2.8-0.5,3.9-2.8l1.6-4.7
			l-10.2-27.7h8.3l6,17.9l5.9-17.9h8.3L455.4,63.5z"/>
	</g>
</g>
</svg>
